<?xml version="1.0" encoding="utf-8"?>
<svg xmlns="http://www.w3.org/2000/svg" xmlns:svg="http://www.w3.org/2000/svg" version="1.1" viewBox="0 0 1400 340">
	<title>The titlepage for the Standard Ebooks edition of The Republic, by Plato</title>
	<g aria-label="THE REPUBLIC">
		<path d="M 337.35672,68.245613 H 355.6959 V 130 h 17.59064 V 68.245613 h 18.33919 V 52.807016 h -54.26901 z"/>
		<path d="m 420.55116,99.029239 h 24.88889 V 130 H 463.0307 V 52.807016 H 445.44005 V 83.590642 H 420.55116 V 52.807016 H 402.96052 V 130 h 17.59064 z"/>
		<path d="M 523.3962,52.807016 H 479.23246 V 130 H 523.3962 V 114.5614 H 496.8231 V 99.029239 h 25.45029 V 83.590642 H 496.8231 V 68.245613 h 26.5731 z"/>
		<path d="M 569.09357,52.807016 V 130 h 17.59064 V 99.497075 L 610.26316,130 h 22.36257 l -26.5731,-31.906433 c 9.4503,-2.994152 15.81287,-10.760234 15.81287,-22.362574 0,-15.157895 -10.8538,-22.923977 -25.16959,-22.923977 z m 17.59064,34.245615 V 66.842104 h 2.05848 c 6.64328,0 14.59649,0.467836 14.59649,10.105263 0,9.637428 -7.95321,10.105264 -14.59649,10.105264 z"/>
		<path d="M 685.32602,52.807016 H 641.16228 V 130 h 44.16374 v -15.4386 h -26.5731 V 99.029239 h 25.4503 V 83.590642 h -25.4503 V 68.245613 h 26.5731 z"/>
		<path d="M 700.43862,52.807016 V 130 h 17.59064 v -28.63158 h 10.5731 c 15.06433,0 26.38597,-8.888888 26.38597,-24.795322 0,-16 -11.32164,-23.766082 -26.38597,-23.766082 z m 17.59064,34.526317 V 66.842104 h 4.95906 c 6.92398,0 13.47369,2.339181 13.47369,10.292398 0,7.859649 -6.54971,10.198831 -13.47369,10.198831 z"/>
		<path d="m 827.07749,52.807016 h -17.59065 v 44.63158 c 0,12.912284 -3.92982,16.654974 -12.53801,16.654974 -8.60819,0 -12.53801,-3.74269 -12.53801,-16.654974 v -44.63158 h -17.59065 v 49.777774 c 0,19.08772 10.47954,28.81872 30.12866,28.81872 19.64912,0 30.12866,-9.731 30.12866,-28.81872 z"/>
		<path d="M 842.38304,52.807016 V 130 h 29.28655 c 16,0 25.26316,-8.79532 25.26316,-21.52047 0,-12.444443 -6.83041,-17.777776 -16.46783,-19.461987 6.5497,-3.368421 9.63742,-9.450292 9.63742,-16.561404 0,-14.690058 -10.47953,-19.649123 -23.76608,-19.649123 z m 17.59065,30.222223 V 66.374268 h 1.40351 c 7.67251,0 11.6959,2.339181 11.6959,7.859649 0,6.456141 -4.11696,8.795322 -11.6959,8.795322 z m 0,33.403511 V 98.187134 h 5.52047 c 8.32748,0 12.91228,2.526316 12.91228,9.637426 0,6.08187 -4.5848,8.60819 -12.91228,8.60819 z"/>
		<path d="M 927.29095,52.807016 H 909.7003 V 130 h 44.16375 v -15.4386 h -26.5731 z"/>
		<path d="M 985.10528,52.807016 H 967.51464 V 130 h 17.59064 z"/>
		<path d="m 1039.541,114.09357 c -17.6842,0 -25.4503,-12.35088 -25.4503,-22.736846 0,-10.292397 7.7661,-22.643275 25.4503,-22.643275 8.9824,0 15.1579,4.77193 15.1579,4.77193 l 7.4854,-14.97076 c 0,0 -8.6082,-7.111112 -25.3568,-7.111112 -21.8947,0 -41.82454,17.964913 -41.82454,40.140352 0,22.081871 20.02344,39.859651 41.82454,39.859651 16.7486,0 25.3568,-7.11111 25.3568,-7.11111 l -7.4854,-14.97076 c 0,0 -6.1755,4.77193 -15.1579,4.77193 z"/>
	</g>
	<g aria-label="PLATO">
		<path d="M 574.14474,232.10526 V 290 h 13.19298 v -21.47368 h 7.92982 c 11.29825,0 19.78948,-6.66667 19.78948,-18.5965 0,-11.99999 -8.49123,-17.82456 -19.78948,-17.82456 z M 587.33772,258 v -15.36842 h 3.7193 c 5.19298,0 10.10526,1.75439 10.10526,7.7193 0,5.89473 -4.91228,7.64912 -10.10526,7.64912 z"/>
		<path d="M 639.07566,232.10526 H 625.88268 V 290 h 33.1228 v -11.57895 h -19.92982 z"/>
		<path d="M 700.99342,232.10526 H 688.7829 L 665.41447,290 h 14.17544 l 4.2807,-11.57895 H 705.9057 L 710.1864,290 h 14.17544 z m 0.42105,34.73685 H 688.36184 L 694.81798,250 h 0.14035 z"/>
		<path d="m 724.47587,243.68421 h 13.75439 V 290 h 13.19298 v -46.31579 h 13.75438 v -11.57895 h -40.70175 z"/>
		<path d="m 770.13925,261.01754 c 0,16.91228 12.07018,30.03509 29.19298,30.03509 16.63158,0 29.12281,-13.12281 29.12281,-30.03509 0,-16.91228 -13.05263,-29.96491 -29.12281,-29.96491 -15.92982,0 -29.19298,13.05263 -29.19298,29.96491 z m 14.24561,0 c 0,-8.63157 4.77193,-17.26315 14.94737,-17.26315 10.24562,0 14.8772,8.63158 14.8772,17.26315 0,8.63158 -4.35088,17.26316 -14.8772,17.26316 -10.80702,0 -14.94737,-8.63158 -14.94737,-17.26316 z"/>
	</g>
</svg>
